<svg id="Layer_1" data-name="Layer 1" xmlns="http://www.w3.org/2000/svg" viewBox="0 0 442.77 352"><defs><style>.cls-1{fill:#faeada;}.cls-2{fill:#2f3c65;}.cls-3{fill:#fab17e;}.cls-4{fill:#ee9a61;}.cls-5{fill:#f8974a;}.cls-6{fill:#eb7e29;}.cls-7{fill:#82b37a;}.cls-8{fill:#a8d29f;}.cls-9{fill:#2a498d;}.cls-10{fill:#2e3752;}</style></defs><path class="cls-1" d="M307.75,349s8.93-196.67-82.5-196.67c-98.78,0-41.12-114.68-106.42-147.84-57.64-29.25-94.45,97.42-70.47,177,17.26,57.3-53.22,89.06-44.79,168.69Z" transform="translate(84.99 -0.15)"/><path class="cls-2" d="M132.9,66.65c-.47-1.68-5.77-19.55-20-6.23,0,0,7.3-5.36,10-.49,0,0-6.58-2.75-9.79,3.57s-2.06,22.1-1,26.56,6.79,16.59,9.52,15.33a8.41,8.41,0,0,0,2.94-3c-.14,2.68-.21,5.58-.18,8.68.21,28.81,11.65,45.54,15.75,38.22,2.63-4.69,6.11,4.87,6.11,4.87L163.67,76S141.52,41.9,132.9,66.65Z" transform="translate(84.99 -0.15)"/><path class="cls-3" d="M173.44,229.07a35.58,35.58,0,0,1-13.95,12c-21.51,10-29.76-26.64-32.86-51.82a13.12,13.12,0,0,1,7.29-4.53,36.48,36.48,0,0,1,4.54-.74c2.42-3.74,6-19,6.81-42.73l1,.54,16.95,9.36s-.77,10.87-1.15,21.14c-.29,8.05-.34,15.72.42,17.59,1.33.58,2.11,1,2.11,1v0A359.73,359.73,0,0,1,173.44,229.07Z" transform="translate(84.99 -0.15)"/><path class="cls-4" d="M163.24,151.16s-.78,10.85-1.15,21.14c-9.6-1.93-14.06-20.39-15.8-30.49Z" transform="translate(84.99 -0.15)"/><path class="cls-3" d="M168.49,154.92s-22.17,11-25.35-17S135,92.6,149,84.39s18,1.19,20.18,10S174.17,151.33,168.49,154.92Z" transform="translate(84.99 -0.15)"/><path class="cls-2" d="M166.74,79.14c-4.39-6.84-6.78-3.78-8-.59-13.69-7.88-19.27,15.68-19.27,15.68.79,20.74-5.08,35.56-5.08,35.56s4.63,3.2,13.43-6c2.7-2.8,4.78-8.08,6.38-14a167.13,167.13,0,0,1-6.44,26.14c10-15.57,10.93-49,11-52.5a29.88,29.88,0,0,1,6.33,10.8c1.91,6.61,4.07,21,6.14,19.58C171.25,113.78,173.31,89.38,166.74,79.14Z" transform="translate(84.99 -0.15)"/><path class="cls-5" d="M173.44,194.42a33,33,0,0,0-11.41-7.6s-2.24,11.59-9.05,11.36c-6.46-.23-12.86-14.68-13.48-16.1a91.45,91.45,0,0,0-12.85,0S111,231.36,113,242.77c1.28,7.51,2.28,15,3.06,22.16a454.71,454.71,0,0,1,1.56,76.58c-.36,5.3-.68,8.29-.68,8.29l49.16,2.3s4.07-29.25,7.09-54.2l.27-2.24c2,8.52,7.85,21.31,10.49,22.31a11.76,11.76,0,0,0,2,.12c3.93.07,11.55.16,11.55.16C198.88,294.73,179.84,200,173.44,194.42Z" transform="translate(84.99 -0.15)"/><path class="cls-6" d="M117.58,341.51A454.71,454.71,0,0,0,116,264.93c0-.39,0-.6,0-.6s13.44,25.92,15.77,53C133.4,335.84,123.72,340.67,117.58,341.51Z" transform="translate(84.99 -0.15)"/><path class="cls-3" d="M155.7,317.34c-.27-1.8-4.74-11-7.16-12.09s-10.39,2.57-10.39,2.57h0a123.25,123.25,0,0,1-29.47-12.65c-2.33-1.35-4.72-2.84-7.15-4.5L121.67,254l17.82-72s-15.11-2.41-18.93,2.19C106.8,200.79,81.31,297.32,81.8,317.32c0,0,6.45.72,18.25,1,9.06.24,21.28.24,36.13-.53a16.52,16.52,0,0,0,3.36-.47Z" transform="translate(84.99 -0.15)"/><path class="cls-5" d="M121.69,254.06l-17.76,37.05c1.74,1.33,3.58,3.25,4.77,4.06,0,0-1.62,14.1-8.65,23.17-11.79-.3-18.25-1-18.25-1-.48-20,25-116.53,38.76-133.07,3.82-4.6,18.93-2.19,18.93-2.19Z" transform="translate(84.99 -0.15)"/><path class="cls-6" d="M197.41,318.25c-1.06,0-13.34-.23-13.51-.28-2.63-1-8.43-13.79-10.48-22.31-.09.75.64-8.05,1.34-11.62,1.48-7.7,3.46-14.21,3.46-14.21C185.29,267.66,197.44,304.72,197.41,318.25Z" transform="translate(84.99 -0.15)"/><path class="cls-3" d="M197,295.9c-1.57-23.92-4.91-65.36-11.49-113.07h0c-.39-3-3.44-26.51-4.72-29.1-1.36-2.75-8.55-8.52-9.79-9.12a5.5,5.5,0,0,0,.55,3,16.19,16.19,0,0,0,1.13,1.64l-1.7,1.84s.64,1.12,1.59.84a7.57,7.57,0,0,0,1.59-.79c.36.44.7.86,1,1.23a13.93,13.93,0,0,1,1.22,2.78c.07.54.29,3,.45,4.48a7.48,7.48,0,0,1-.64-1.4c-.68-2.12-2.11-1.91-2.11-1.91s1.95,4.94,2.14,8.14a19.65,19.65,0,0,0,1.63,7.44h0a22.16,22.16,0,0,1,1.78,4.72,54.55,54.55,0,0,1,.73,7.28h0c.29,7.21,1.29,33.78,1,53.33-.37,26.35-1.61,49.94-.14,64.59a46.49,46.49,0,0,0,1.75,9.47c3.2,9.9,14.44,7,14.44,7A206,206,0,0,0,197,295.9Z" transform="translate(84.99 -0.15)"/><path class="cls-5" d="M197.41,318.25s-11.24,2.89-14.44-7a46.22,46.22,0,0,1-1.75-9.47c2.42,1.21,9,3.26,15.78-5.88A205.6,205.6,0,0,1,197.41,318.25Z" transform="translate(84.99 -0.15)"/><path class="cls-7" d="M281.92,305.91s-9.15-21.54-.57-35.21c0,0,6.28-7.66,11.39-7,0,0-7.25,24.5-4.9,26.95s7.1-28.46,7.1-28.46,14.27-2.8,18.86,1.65c0,0-12.2,20.14-9.63,21.33s15.74-18.57,15.74-18.57,13.28,4.55,12.57,20.9-5.28,21.38-7.3,21-13.77-9.5-14-6.16S318,316.45,322.93,317c0,0-9.36,20.83-15.58,14.81s-6.76-15.54-10.63-19.11-7.18-3.57-5.59.07,8.61,7.19,10.84,15.1,4.21,13.25-2.23,11.29-16.9-11.45-17.35-22.33Z" transform="translate(84.99 -0.15)"/><path class="cls-7" d="M325.94,287.92s-36.06-2.8-44,18a70.55,70.55,0,0,1-7.19,20.32l-.84,4.65s6.25-13.3,8.49-14.1C282.38,316.8,278.88,291,325.94,287.92Z" transform="translate(84.99 -0.15)"/><path class="cls-7" d="M276.24,326.14c-.32.67-.77,1.61-1.44,2.84l0,.07c-.22.4-.43.84-.63,1.31a60.14,60.14,0,0,0-3.29,10.76c-.18.79-.36,1.58-.52,2.38h-2.11c.17-.82.36-1.61.55-2.38,2.46-9.69,5.95-14.89,5.95-14.89h0C274.87,326.09,278,322.29,276.24,326.14Z" transform="translate(84.99 -0.15)"/><path class="cls-8" d="M256.67,278.35s14.55-16.43,7.75-38.73c0,0-5.42-13.7-11.24-17.22,0,0,3.1,33.27,0,34S251,218.88,251,218.88,235.71,204,229.7,205.18c0,0,9.5,32.48,6.4,31.71s-13.78-33.65-13.78-33.65-15.71-5.88-18.24,12.91,1.56,28.18,3.88,29.35,17.27.79,16.88,4.69-10.47,10.17-16.1,6.65c0,0,6.21,30.91,14.35,29.35s10.67-11.74,15.72-12.53,8.73,2,6.21,4.69-11.06.89-15.13,7.89-7.38,11.29.19,14.42,21.15,1.16,23.86-10.57Z" transform="translate(84.99 -0.15)"/><path class="cls-7" d="M211.27,222s40.74,26.6,45.4,56.35a117.2,117.2,0,0,0,3.88,28.56v5.88s-4.26-20-6.59-22.7C254,290.09,263.07,264.26,211.27,222Z" transform="translate(84.99 -0.15)"/><path class="cls-7" d="M264.16,341.14c-.05.79-.1,1.56-.18,2.38h-2.11c0-.72.05-1.52.06-2.38.19-7.93.15-20.42-1.53-29l0-.12c-.14-.72-.3-1.42-.47-2.08,0,0,0,0,0,0-.49-1.89-.8-3.29-1-4.3h0c-1.16-5.76,1.53,1,1.66,1.33h0A101,101,0,0,1,264.16,341.14Z" transform="translate(84.99 -0.15)"/><path class="cls-8" d="M274.19,244.8S255,223.12,264,193.72c0,0,7.16-18.06,14.82-22.7,0,0-4.08,43.84,0,44.87s2.81-49.51,2.81-49.51,20.2-19.6,28.14-18.06c0,0-12.54,42.81-8.44,41.79s18.15-44.36,18.15-44.36,20.71-7.75,24,17-2.05,37.15-5.11,38.69-22.76,1-22.26,6.18,13.82,13.42,21.23,8.78c0,0-8.18,40.76-18.92,38.68s-14.07-15.47-20.71-16.5-11.51,2.59-8.19,6.19,14.58,1.19,20,10.38,9.72,14.89-.25,19-27.87,1.54-31.45-13.93Z" transform="translate(84.99 -0.15)"/><path class="cls-7" d="M334,170.51s-53.7,35.07-59.84,74.29a154.14,154.14,0,0,1-5.11,37.66v7.74s5.63-26.32,8.69-29.91C277.77,260.27,265.75,226.23,334,170.51Z" transform="translate(84.99 -0.15)"/><path class="cls-7" d="M269.08,282.46a134.26,134.26,0,0,0-3.56,56.25l2.13-1.14s-2.06-34,2.26-51.12S269.08,282.46,269.08,282.46Z" transform="translate(84.99 -0.15)"/><path class="cls-2" d="M240.1,318H45.85c-9.1,0-16.49,14.88-16.49,33.24H256.57C256.57,332.83,249.19,318,240.1,318Z" transform="translate(84.99 -0.15)"/><path class="cls-9" d="M263.89,318H69.64c-9.09,0-16.48,14.88-16.48,33.24v-1h227.2v1C280.38,332.83,273,318,263.89,318Z" transform="translate(84.99 -0.15)"/><path class="cls-10" d="M-84.48,352.15c-.28,0-.51-.47-.51-1v-.35c0-.56.23-1,.51-1" transform="translate(84.99 -0.15)"/><path class="cls-10" d="M357.28,349.8c.28,0,.51.44.51,1v.35c0,.56-.23,1-.51,1" transform="translate(84.99 -0.15)"/></svg>