<svg id="Layer_1" data-name="Layer 1" xmlns="http://www.w3.org/2000/svg" viewBox="0 0 72.11 16.41"><defs><style>.cls-1{fill:#231f20;}</style></defs><path class="cls-1" d="M1.38,7.77a2.08,2.08,0,0,1,.43-1.33,1.34,1.34,0,0,1,1.1-.55A1.35,1.35,0,0,1,4,6.44a2.13,2.13,0,0,1,.42,1.33A2.18,2.18,0,0,1,4,9.13a1.34,1.34,0,0,1-1.11.54,1.33,1.33,0,0,1-1.1-.54A2.13,2.13,0,0,1,1.38,7.77Zm2.9,14.17a4.13,4.13,0,0,1-.5.12,4,4,0,0,1-.72.06,1.66,1.66,0,0,1-1.16-.33,1.78,1.78,0,0,1-.35-1.3V11.07a3.47,3.47,0,0,1,.5-.13,3.26,3.26,0,0,1,.72-.07,1.61,1.61,0,0,1,1.16.34,1.87,1.87,0,0,1,.35,1.31Z" transform="translate(-1.38 -5.89)"/><path class="cls-1" d="M12.49,13.73a1.34,1.34,0,0,0-1-.39,2.22,2.22,0,0,0-.79.14,3.83,3.83,0,0,0-.67.34v8.12a3.71,3.71,0,0,1-.5.12,4,4,0,0,1-.72.06,1.7,1.7,0,0,1-1.17-.33,1.77,1.77,0,0,1-.36-1.3V13.41a1.9,1.9,0,0,1,.2-1A2.4,2.4,0,0,1,8,11.76a4.3,4.3,0,0,1,1.48-.85,6.14,6.14,0,0,1,2-.32,4,4,0,0,1,3,1.1,4.34,4.34,0,0,1,1.07,3.14v7.11a4.62,4.62,0,0,1-.52.12,4,4,0,0,1-.72.06,1.66,1.66,0,0,1-1.16-.33,1.78,1.78,0,0,1-.35-1.3V14.92A1.67,1.67,0,0,0,12.49,13.73Z" transform="translate(-1.38 -5.89)"/><path class="cls-1" d="M21.62,19.24a1.25,1.25,0,0,0,.9.29,2.68,2.68,0,0,0,1.09-.27,2,2,0,0,1,.27.52,1.85,1.85,0,0,1,.11.69,1.83,1.83,0,0,1-.49,1.32,2.36,2.36,0,0,1-1.72.51,3.1,3.1,0,0,1-2.36-.88,4,4,0,0,1-.85-2.88V8.25l.53-.15A3.06,3.06,0,0,1,19.8,8a1.53,1.53,0,0,1,1.14.36,1.86,1.86,0,0,1,.35,1.29v1.49h2.49c0,.16.12.35.18.59a3,3,0,0,1,.09.74,1.66,1.66,0,0,1-.27,1.06.82.82,0,0,1-.67.32H21.29v4.45A1.16,1.16,0,0,0,21.62,19.24Z" transform="translate(-1.38 -5.89)"/><path class="cls-1" d="M39.58,21.94a5.22,5.22,0,0,1-.52.12,4,4,0,0,1-.72.06,1.66,1.66,0,0,1-1.16-.33,1.78,1.78,0,0,1-.35-1.3V14.81a1.57,1.57,0,0,0-.33-1.11,1.12,1.12,0,0,0-.88-.36,1.58,1.58,0,0,0-.68.16,2.28,2.28,0,0,0-.56.42,1.64,1.64,0,0,1,0,.22,1.85,1.85,0,0,1,0,.23v7.57a4.62,4.62,0,0,1-.52.12,3.88,3.88,0,0,1-.72.06A1.66,1.66,0,0,1,32,21.79a1.82,1.82,0,0,1-.35-1.3V14.81a1.48,1.48,0,0,0-.36-1.11,1.19,1.19,0,0,0-.88-.36,1.58,1.58,0,0,0-.69.15,4.18,4.18,0,0,0-.5.29v8.16a4.13,4.13,0,0,1-.5.12,4,4,0,0,1-.72.06,1.7,1.7,0,0,1-1.17-.33,1.77,1.77,0,0,1-.36-1.3V13.41a2,2,0,0,1,.19-1,2.58,2.58,0,0,1,.56-.69,4.77,4.77,0,0,1,1.47-.85,5.34,5.34,0,0,1,1.83-.32,4,4,0,0,1,1.43.26,3.63,3.63,0,0,1,1.23.82,5.26,5.26,0,0,1,1.22-.77A3.87,3.87,0,0,1,36,10.59a4,4,0,0,1,1.34.22,2.75,2.75,0,0,1,1.13.71,3.75,3.75,0,0,1,.78,1.28,5.45,5.45,0,0,1,.3,1.92Z" transform="translate(-1.38 -5.89)"/><path class="cls-1" d="M51.3,16.44A8.42,8.42,0,0,1,51,18.88a5.3,5.3,0,0,1-.92,1.84,4.17,4.17,0,0,1-1.45,1.17,4.22,4.22,0,0,1-1.89.41,4.37,4.37,0,0,1-1.9-.4,4,4,0,0,1-1.46-1.15,5.54,5.54,0,0,1-.93-1.85,8.89,8.89,0,0,1-.32-2.46A8.28,8.28,0,0,1,42.43,14a5.56,5.56,0,0,1,.94-1.85A4.25,4.25,0,0,1,44.83,11a4.49,4.49,0,0,1,3.75,0A4.22,4.22,0,0,1,50,12.18,5.74,5.74,0,0,1,51,14,7.88,7.88,0,0,1,51.3,16.44Zm-4.59-3.1a1.47,1.47,0,0,0-1.32.8,4.66,4.66,0,0,0-.46,2.3,4.76,4.76,0,0,0,.45,2.32,1.5,1.5,0,0,0,2.65,0,4.65,4.65,0,0,0,.46-2.31A4.61,4.61,0,0,0,48,14.16,1.44,1.44,0,0,0,46.71,13.34Z" transform="translate(-1.38 -5.89)"/><path class="cls-1" d="M62.62,16.44a8.42,8.42,0,0,1-.33,2.44,5.3,5.3,0,0,1-.92,1.84,4.08,4.08,0,0,1-1.45,1.17A4.22,4.22,0,0,1,58,22.3a4.37,4.37,0,0,1-1.9-.4,4,4,0,0,1-1.46-1.15,5.54,5.54,0,0,1-.93-1.85,8.89,8.89,0,0,1-.32-2.46A8.28,8.28,0,0,1,53.75,14a5.75,5.75,0,0,1,.94-1.85A4.25,4.25,0,0,1,56.15,11,4.32,4.32,0,0,1,58,10.59,4.27,4.27,0,0,1,59.9,11a4.22,4.22,0,0,1,1.45,1.18A6,6,0,0,1,62.29,14,8.21,8.21,0,0,1,62.62,16.44ZM58,13.34a1.47,1.47,0,0,0-1.32.8,4.66,4.66,0,0,0-.46,2.3,4.64,4.64,0,0,0,.46,2.32,1.49,1.49,0,0,0,2.64,0,4.65,4.65,0,0,0,.46-2.31,4.61,4.61,0,0,0-.47-2.28A1.44,1.44,0,0,0,58,13.34Z" transform="translate(-1.38 -5.89)"/><path class="cls-1" d="M69.28,10.59a4,4,0,0,1,.78.08,4.17,4.17,0,0,1,.68.22V7a4.08,4.08,0,0,1,.52-.14A3.82,3.82,0,0,1,72,6.83a1.61,1.61,0,0,1,1.16.35,1.84,1.84,0,0,1,.35,1.3V19.65a2.13,2.13,0,0,1-.18.92,1.89,1.89,0,0,1-.58.7,5.15,5.15,0,0,1-1.29.71,4.73,4.73,0,0,1-1.82.32,4.55,4.55,0,0,1-3.57-1.45,6.38,6.38,0,0,1-1.31-4.37,8.72,8.72,0,0,1,.35-2.61,5.39,5.39,0,0,1,1-1.83A3.63,3.63,0,0,1,67.5,11,4.39,4.39,0,0,1,69.28,10.59Zm1.47,3.1a2,2,0,0,0-.51-.24,1.66,1.66,0,0,0-.58-.11,1.83,1.83,0,0,0-1.55.76,3.92,3.92,0,0,0-.58,2.4,3.81,3.81,0,0,0,.55,2.31,1.81,1.81,0,0,0,1.52.72,2.07,2.07,0,0,0,.68-.1,1.87,1.87,0,0,0,.47-.24Z" transform="translate(-1.38 -5.89)"/></svg>