<svg id="Layer_1" data-name="Layer 1" xmlns="http://www.w3.org/2000/svg" viewBox="0 0 280.55 329.67"><defs><style>.cls-1{fill:#f9e9d9;}.cls-2{fill:#29498e;}.cls-3{fill:#303c65;}.cls-4{fill:#343d51;}.cls-5{fill:#f2ddcc;}.cls-6{fill:#f8974c;}.cls-7{fill:#f79649;}.cls-8{fill:#f1bf88;}.cls-9{fill:#e5af7c;}.cls-10{fill:#5a6488;}.cls-11{fill:#ea7e28;}.cls-12{fill:#7995a4;}.cls-13{fill:#495473;}</style></defs><path class="cls-1" d="M264,90.31,83.48,96.22c-27.29.89-47.95,18-45.24,37.42L52.53,236.15c2.3,16.52,20.92,29.45,44.07,30.62l160.53,8.08c26.91,1.35,50-13.53,51-32.81l5.67-116.5C314.74,105.65,291.77,89.4,264,90.31Z" transform="translate(-33.25 -4.67)"/><path class="cls-2" d="M33.25,315.81c20.38-67.14,135.92-88.63,193.84-82s71,82,71,82C179.49,342,33.25,315.81,33.25,315.81Z" transform="translate(-33.25 -4.67)"/><path class="cls-3" d="M287.4,283.49c-10-21.33-28.29-46-60.31-49.66-35.39-4.07-92.25,2.4-135.81,23.34C149.3,296.66,258.93,286.85,287.4,283.49Z" transform="translate(-33.25 -4.67)"/><path class="cls-4" d="M110.62,301.29c-2.53,3.39-5.55,6.59-7.72,10.1s-3.45,7.45-2.25,11.19,5.36,7.16,10.67,7.67a17.56,17.56,0,0,0,12.54-4c3.09-2.6,4.88-5.85,6.61-9q4.58-8.42,9.16-16.84a4.69,4.69,0,0,0,0-5.49c-1.62-3.59-3.41-7.37-7.38-9.85C117.57,275.82,114.85,295.61,110.62,301.29Z" transform="translate(-33.25 -4.67)"/><path class="cls-5" d="M100.8,314.67c3.81-3.53,10.85-5.09,16.8-3.71S128,316.56,128.14,321c4.12-7.89,8.68-15.73,12.3-23.75,1.31.12,1.33,1.46,1,2.37l-4.14,10.83c-1.79,4.67-3.6,9.39-6.9,13.62a27,27,0,0,1-14.66,9.58c-3.56.89-7.72,1-10.93-.38a10.21,10.21,0,0,1-5.68-7C98,322.22,97.23,318,100.8,314.67Z" transform="translate(-33.25 -4.67)"/><path class="cls-5" d="M125.37,307.84c-4.48-3.87-14.2-6.27-19.32-1.57-.35.32.08.8.64.59,6.29-2.36,12.37-1.95,17.15,2.08C124.75,309.7,126.25,308.6,125.37,307.84Z" transform="translate(-33.25 -4.67)"/><path class="cls-5" d="M125.58,301.77a20.83,20.83,0,0,0-4.9-1.78c-3.89-.93-8.62-.55-11.57,1.59-.41.29,0,.89.6.73,4.81-1.29,13.13-2.1,16.14,2a1.23,1.23,0,0,0,1,.4C129.8,304.47,126.08,302,125.58,301.77Z" transform="translate(-33.25 -4.67)"/><path class="cls-5" d="M130,299.81c-2.63-3.64-14.85-6.46-18.25-2-.2.27.22.6.62.43,4.4-1.88,13.32-1.48,15.68,2.36C128.62,301.56,130.67,300.75,130,299.81Z" transform="translate(-33.25 -4.67)"/><path class="cls-4" d="M250.64,301.29c2.52,3.39,5.54,6.59,7.71,10.1s3.45,7.45,2.25,11.19-5.35,7.16-10.67,7.67a17.52,17.52,0,0,1-12.53-4c-3.1-2.6-4.88-5.85-6.62-9l-9.16-16.84a6.85,6.85,0,0,1-.83-2,6.37,6.37,0,0,1,.83-3.48c1.63-3.59,3.41-7.37,7.39-9.85C243.69,275.82,246.41,295.61,250.64,301.29Z" transform="translate(-33.25 -4.67)"/><path class="cls-5" d="M260.46,314.67c-3.82-3.53-10.86-5.09-16.8-3.71s-10.36,5.6-10.55,10.06c-4.11-7.89-8.67-15.73-12.3-23.75-1.3.12-1.32,1.46-1,2.37L224,310.47c1.78,4.67,3.6,9.39,6.9,13.62a27,27,0,0,0,14.65,9.58c3.56.89,7.73,1,10.94-.38a10.19,10.19,0,0,0,5.67-7C263.25,322.22,264,318,260.46,314.67Z" transform="translate(-33.25 -4.67)"/><path class="cls-5" d="M235.89,307.84c4.47-3.87,14.2-6.27,19.31-1.57.36.32-.07.8-.64.59-6.28-2.36-12.37-1.95-17.15,2.08C236.51,309.7,235,308.6,235.89,307.84Z" transform="translate(-33.25 -4.67)"/><path class="cls-5" d="M235.68,301.77a20.75,20.75,0,0,1,4.89-1.78c3.89-.93,8.62-.55,11.58,1.59.41.29,0,.89-.6.73-4.81-1.29-13.13-2.1-16.14,2a1.27,1.27,0,0,1-1,.4C231.46,304.47,235.17,302,235.68,301.77Z" transform="translate(-33.25 -4.67)"/><path class="cls-5" d="M231.26,299.81c2.63-3.64,14.85-6.46,18.24-2,.21.27-.22.6-.61.43-4.4-1.88-13.32-1.48-15.68,2.36C232.64,301.56,230.58,300.75,231.26,299.81Z" transform="translate(-33.25 -4.67)"/><path class="cls-6" d="M296.15,139.47c-3.55-2.5-8-4.25-12.36-6l-46.35-18.22a95.29,95.29,0,0,0-16.1-5.22c-1.33-.27-2.67-.46-4-.63l-2.82-1c4.78-5.64,1-13.46-6.32-17.51s-17-5.08-26.19-5.2c-16.86-.2-34.15,2.36-48.14,9.09-4.67,2.24-9.18,5.23-10.26,9.18a6.39,6.39,0,0,0,2.39,6.35l-1.87-.62a301.1,301.1,0,0,0-7.51,60.17,219,219,0,0,0,.7,24.57c.45,5.08,1.32,10.48,5.85,14.39,2.76,2.39,6.62,4,10.41,5.48C148.49,220.27,164.2,226,181.23,227S217,223,225,212.19c6.46-8.79,4.71-19.36,6.92-29.16,1.38-6.18,4.36-12.08,7.47-17.95l39.14.88c4.07.09,8.24.18,12.12-.73,6.92-1.62,11.95-6.44,12.83-11.61S301.34,143.13,296.15,139.47Z" transform="translate(-33.25 -4.67)"/><path class="cls-7" d="M152.3,169.92c14.28,3.93,31.14.45,42.61-6.79s18.19-17.66,21.91-28.28c3.16,6.31,14.48,8.22,23.79,7.5s18.72-3.07,27.81-1.48a85.85,85.85,0,0,0-26.06,8.83c-2.63,1.42-5.2,3-6.58,5.18a11.69,11.69,0,0,0-1.45,6.35c-.26,13.56,3,27.49-2.38,40.49-7.29,17.52-31,30.67-56.51,32s-51.21-8.89-64-24.73-12.35-36.48.14-52.42c7.17-9.16,11.66-5.81,19.1.79C136.59,162.56,143.41,167.47,152.3,169.92Z" transform="translate(-33.25 -4.67)"/><path class="cls-6" d="M169,92c6.65-.55,13.68-.53,19.68,1.61,2.74,1,5.36,2.57,5.88,4.73.63,2.66-2.11,5.14-5.19,6.69s-6.7,2.59-9.32,4.52c-3.23,2.38-4.77,6-8.82,7.59s-9.49.56-13.62-1.17-7.9-4.16-10.19-7.21C137.91,96.07,155.65,93.09,169,92Z" transform="translate(-33.25 -4.67)"/><path class="cls-8" d="M205.56,168c-6.45,5.81-10.76,13-11.09,20.4a3,3,0,0,0,.57,2.23,2.54,2.54,0,0,0,2.75.56,2.16,2.16,0,0,0,.91-1.15q2.28-5.06,4.55-10.12l-.33,8.89c-.06,1.79.49,4.16,3,4.42,2.71.29,4.09-2.23,4.47-4.17l1.17-5.95a11.75,11.75,0,0,0,2.13,3.85,2.62,2.62,0,0,0,1.34,1,3.23,3.23,0,0,0,3.17-1.42c2.77-3.6,2.94-7.94,5.13-11.74,3.48-6,11.51-9.95,18.6-14.05a6.74,6.74,0,0,0,2.77-2.36c3.09-6.36-12.74-4.46-16.77-3.38C219.39,157.25,211.09,163,205.56,168Z" transform="translate(-33.25 -4.67)"/><path class="cls-8" d="M145.93,114.74A1.91,1.91,0,0,0,146,116a3.25,3.25,0,0,0,1.58,1.13,79.33,79.33,0,0,0,9.37,3.59,20.55,20.55,0,0,0,8.53,1.22c4.65-.57,7.73-3.68,10.1-6.6q1.62-2,3.13-4a3.36,3.36,0,0,0,.78-1.55,3.13,3.13,0,0,0-.56-1.69A155.86,155.86,0,0,1,168,83.52c-1.78-5.19-3.38-10.62-7.91-14.86a9.3,9.3,0,0,0-3.45-2.2,11.17,11.17,0,0,0-4.25-.43c-5.62.39-10.34,3.56-12.42,7.31-1.62,2.93-2.5,7.06-.84,10.08,1.48,2.68,3.6,4.76,4.63,7.68A47.59,47.59,0,0,1,145.93,114.74Z" transform="translate(-33.25 -4.67)"/><path class="cls-9" d="M170.38,100.67a32.91,32.91,0,0,0,2.39-5c-1.77-4-3.37-8.07-4.77-12.15s-2.8-8.59-5.68-12.36a50.51,50.51,0,0,0-9.24,4c-5,3.18-9.35,7.09-11.79,11.51a18.14,18.14,0,0,1,2.47,4.39,48.33,48.33,0,0,1,2.76,15.41,19.13,19.13,0,0,0,3.09,1.6,18,18,0,0,0,9.57,1.24C164.75,108.41,168.16,104.44,170.38,100.67Z" transform="translate(-33.25 -4.67)"/><path class="cls-10" d="M117.62,74.69C114,73,109.51,71.09,109.31,68c-.15-2.47,2.54-4.51,5-6.22-3.32-1.21-7.06-2.86-7.38-5.51-.28-2.32,2.25-4.3,4.88-5.67,6.48-3.36,14.46-4.93,22.41-5.62,6.61-.58,14-.45,19.06,2.64s6.45,8.26,7.48,13l2.4,11c.67,3.09,1.25,6.51-1.15,9.13-2.14,2.32-6.13,3.39-10,3.84a48.36,48.36,0,0,1-20.19-2.08C126.43,80.74,122.69,77,117.62,74.69Z" transform="translate(-33.25 -4.67)"/><path class="cls-8" d="M169.51,84.11a19.63,19.63,0,0,0-2.75-8.74c0-.2.1-.43.16-.69a1.12,1.12,0,0,0,.18-.64v-.1c.8-3.47,1.93-10.09-3.64-9.84h-.09a2.11,2.11,0,0,0-1.5.13,4,4,0,0,0-2.1,2.16c-.81-.82-1.63-1.62-2.47-2.4-8.72-8.12-22.74-12.2-29.93.37-9.5-.57-8.11,4.09-6.82,7.82a3.26,3.26,0,0,0-2,2.48c-.77,4.15,1.68,9,3.65,12.9A14.82,14.82,0,0,0,128,94.15c1.15.66,2.48,1.15,3.62,1.83,2.05,1.22,3.37,2.94,5,4.46a10.35,10.35,0,0,0,6.47,3.07c2.76.14,5.5-1.34,6.07-3.27a4,4,0,0,0-.76-3.4c3.71,1,8.8,1.89,13.54.52C169.7,95.1,169.67,88.22,169.51,84.11Z" transform="translate(-33.25 -4.67)"/><path class="cls-10" d="M132.36,69.62a8.17,8.17,0,0,0-4.72,1.73c-1,.76-2.25,2.1-1.25,3.13.25.26.78.1.7-.22-.47-1.84,2.79-3.89,5.27-3.87C133.05,70.4,133.05,69.63,132.36,69.62Z" transform="translate(-33.25 -4.67)"/><path class="cls-10" d="M151.66,62c-2.94-1.7-7.88,1.3-8,3.51,0,.3.63.45.81.16a6.17,6.17,0,0,1,2.68-2.62,7.55,7.55,0,0,1,4.25-.5C151.72,62.59,152,62.19,151.66,62Z" transform="translate(-33.25 -4.67)"/><path class="cls-10" d="M154.89,66.07c-2.77,0-5.69.63-7.17,2.42-.05.06.07.12.14.07a11.33,11.33,0,0,1,3.56-1.66,1.37,1.37,0,0,0,1.26.6,1.61,1.61,0,0,0,1.46-.92s0,0,0-.07l.74,0C155.27,66.49,155.27,66.08,154.89,66.07Z" transform="translate(-33.25 -4.67)"/><path class="cls-10" d="M134.6,72.85a7.9,7.9,0,0,0-4.55,1.63c-.61.46-1.93,1.5-1.54,2.19,0,.06.19.06.18,0-.09-.77,1.16-1.44,1.9-1.89a7.16,7.16,0,0,1,4-1.47C135,73.31,135,72.85,134.6,72.85Z" transform="translate(-33.25 -4.67)"/><path class="cls-10" d="M132.2,73.64a.19.19,0,0,0-.09.11c-.16,0-.27.13-.24.28.19.81,2.1.29,2.14-.39C134.07,72.72,132.66,73.34,132.2,73.64Z" transform="translate(-33.25 -4.67)"/><path class="cls-10" d="M150.62,77.27l-.39-.36a5.93,5.93,0,0,0,1.52-1,1.07,1.07,0,0,0,.25-1.3,2.25,2.25,0,0,0-1.36-.72,9.89,9.89,0,0,0-1.13-.17l-.81-.11a9,9,0,0,1-4.78-2.35,9.16,9.16,0,0,1-2.32-3.78l.61-.11A8.73,8.73,0,0,0,144.42,71a8.37,8.37,0,0,0,4.42,2.17l.77.11a10.57,10.57,0,0,1,1.22.18,2.75,2.75,0,0,1,1.74,1,1.4,1.4,0,0,1-.29,1.73A6.69,6.69,0,0,1,150.62,77.27Z" transform="translate(-33.25 -4.67)"/><path class="cls-10" d="M150.38,87.15l-.48-.3a13.55,13.55,0,0,1,1.78-1.29,9.28,9.28,0,0,1,4.57-1.14v.45h-.05a8.52,8.52,0,0,0-4.13,1A11.32,11.32,0,0,0,150.38,87.15Z" transform="translate(-33.25 -4.67)"/><path class="cls-10" d="M142.75,92.4l-1.17-.7c-5.5-3.39-9.65-8-11.69-13l-.08-.18a5,5,0,0,0-1.09-1.84,3.26,3.26,0,0,0-2.77-.84,1.78,1.78,0,0,0-1,.59c0-.14,0-.28,0-.41V76a3,3,0,0,0-.45-1.57,2.16,2.16,0,0,0-2-.79c-1.47.27-1.38,1.75-1.27,2.37l1,5.85.31,0-1-5.85c-.07-.44-.22-1.89,1-2.12a1.8,1.8,0,0,1,1.69.67,2.85,2.85,0,0,1,.42,1.49v.06c0,.32.07.63.11,1a.7.7,0,0,0,0,.35,27.84,27.84,0,0,0,4.43,11.44l.28-.09a28.13,28.13,0,0,1-4.36-11l.17-.11a.64.64,0,0,1-.22-.3.77.77,0,0,0,0-.15.77.77,0,0,1,0-.3,1.35,1.35,0,0,1,1-.75,2.88,2.88,0,0,1,2.43.76,4.78,4.78,0,0,1,1,1.77l.08.18c2.06,5,6.25,9.66,11.79,13.08l1.17.7c2.18,1.3,4.43,2.64,5.3,4.53l.29-.07C147.25,95.08,145,93.72,142.75,92.4Z" transform="translate(-33.25 -4.67)"/><path class="cls-6" d="M123,98.37c.1,1.67,1.36,3.3.9,4.94a6.36,6.36,0,0,1-1.76,2.46q-17.69,18.18-34,37c-3.59,4.14-7.15,8.34-9.53,12.9-1.39,2.67-2.36,5.58-1.39,8.34,1.26,3.58,5.54,6.19,9.91,8.16a39.79,39.79,0,0,0,12.46,3.57c12.23,1.17,23.6-5.57,29.11-13.46s6.78-16.9,9.67-25.48c2.72-8,6.9-15.82,9.57-23.88,1-2.94,1.72-6.06.49-9-1.76-4.12-8.08-8.31-13.34-10.25C130.32,92,122.77,93.75,123,98.37Z" transform="translate(-33.25 -4.67)"/><path class="cls-11" d="M148,112.94c.07-.21.13-.42.2-.64-6.19.85-9.51,6-11.84,10.31A168.73,168.73,0,0,1,117.9,150c-3.18,3.88-7,7.93-12.91,9.43-12.67,3.21-18.57-2.48-22.47-9.81a45,45,0,0,0-3.9,6.05c-1.39,2.67-2.36,5.58-1.39,8.34,1.26,3.58,5.54,6.19,9.91,8.16a39.79,39.79,0,0,0,12.46,3.57c12.23,1.17,23.6-5.57,29.11-13.46s6.78-16.9,9.67-25.48C141.1,128.77,145.28,121,148,112.94Z" transform="translate(-33.25 -4.67)"/><path class="cls-12" d="M128.57,110.1a.85.85,0,0,0,.17-.54,6.64,6.64,0,0,1-.07-2.13c.23-.76-.23-1.56-1.28-1.86s-2.31-.08-2.75.65a8.12,8.12,0,0,0-1.06,3.41,2.2,2.2,0,0,0-.1.82c0,.11,0,.18,0,.21v0s0-.05,0-.13a1.89,1.89,0,0,0,0,.47,2.17,2.17,0,0,0,2.38,1.7c1.25,0,2.44-.78,2.38-1.7,0-.06,0-.1,0-.14s.05-.06.07-.1A1.07,1.07,0,0,0,128.57,110.1Z" transform="translate(-33.25 -4.67)"/><path class="cls-10" d="M272.28,164.18c-3.78-5.53-11.26-10.13-19.86-10.38-11.2-.32-20.24,6.38-26.35,13.1-11.79,12.95-18.17,25.72-25.57,40.38-5.64.12-40.76,1-49-1.27l-19.7-21.95c-4.72-5.27-9.53-10.61-16.09-14.76s-15.19-7-23.89-6.37c-15.41,1.14-25.61,13-26,24.09s6.41,21.54,12.42,31.76C87.54,234.53,110,277.92,113,288.07c6.85,1.29,24.4,2.15,31.06.42q-8.79-25.35-17.59-50.7c11.82,10.7,32.83,14.79,51.62,12.47s35.46-10.22,49.08-19.77a297.17,297.17,0,0,1-5.22,54.26,63.09,63.09,0,0,0,27.52-.09c9-34.25,27.63-67.59,27.39-102.45C276.77,176.05,276.07,169.72,272.28,164.18Z" transform="translate(-33.25 -4.67)"/><path class="cls-13" d="M276.8,184.61l-.57-.56c-6.07-6-12.24-12.09-20.17-16.87a9,9,0,0,0-4.95-1.64,8.21,8.21,0,0,0-4.48,1.88c-17.2,12.54-17.1,33.25-32.83,46.75a7.4,7.4,0,0,1-3.89,2,9.22,9.22,0,0,1-4.37-.85,59,59,0,0,1-14.2-7.85c-12.58.19-33.39.25-39.68-1.41l-15,15.42c-2.36,2.43-6.62,5.14-10,3.42a5.46,5.46,0,0,1-2.49-3.38q-7.22-20.07-14.45-40.13c-1-2.81-3.28-6.29-7.31-6-1.93.15-3.45,1.19-5,2-11.5,6.42-20,3.43-28.24-1.1A22,22,0,0,0,65.87,187c-.37,11.08,6.41,21.54,12.42,31.76C87.54,234.53,110,277.92,113,288.07c6.85,1.29,24.4,2.15,31.06.42q-8.79-25.35-17.59-50.7c11.82,10.7,32.83,14.79,51.62,12.47s35.46-10.22,49.08-19.77a297.17,297.17,0,0,1-5.22,54.26,63.09,63.09,0,0,0,27.52-.09C258.24,251.19,276.21,218.6,276.8,184.61Z" transform="translate(-33.25 -4.67)"/><path class="cls-7" d="M203.89,53a33.3,33.3,0,0,1-4.49-6c-8.09-13.83,1.09-29.12,18.69-36.39,12.16-5,27.12-6.61,41-5.76,6.68.41,15.67,2,21.39,4.45,4.94,1.8,12.8,7.2,16,10.13,5.58,5.14,9.8,13.73,9.88,20.21.16,12-9.15,23.14-24.88,27.5-18.84,5.23-42.63,4.39-60.43-2.93-2.34,2.28-6.5,3.81-11.29,3.81-7.33,0-13.28-3.56-13.28-8C196.49,57,199.52,54.29,203.89,53Z" transform="translate(-33.25 -4.67)"/><ellipse class="cls-7" cx="157.96" cy="63.39" rx="6.64" ry="3.98"/><path class="cls-13" d="M259.78,20.31a16.39,16.39,0,0,0-14.52-1.57c-5.2,2-6.81,6.36-7.66,10.24-.54,2.53,5,3,5.5.52.93-4.29,6.55-11.67,13.16-5.77,4.9,4.37-1.32,8.3-5.59,11.08-4.78,3.1-8.53,6.4-7.58,11.23.49,2.53,6,2,5.5-.5C247.25,38.75,260.47,36,263,30.06,264.36,26.71,263.3,22.81,259.78,20.31Z" transform="translate(-33.25 -4.67)"/><path class="cls-13" d="M247.25,50.21c-3.57,0-2.83,3.94.69,3.94S250.77,50.21,247.25,50.21Z" transform="translate(-33.25 -4.67)"/></svg>